<svg width="1920" height="1534" viewBox="0 0 1920 1534" fill="none" xmlns="http://www.w3.org/2000/svg" xmlns:xlink="http://www.w3.org/1999/xlink">
  <g clip-path="url(#clip0_2_3)">
  <path d="M1704 979C1704 1043.07 1652.07 1095 1588 1095C1523.93 1095 1472 1043.07 1472 979C1472 914.935 1523.93 863 1588 863C1652.07 863 1704 914.935 1704 979Z" fill="#FBE4E3"/>
  <path d="M1720 979C1720 1051.9 1660.9 1111 1588 1111C1515.1 1111 1456 1051.9 1456 979C1456 906.098 1515.1 847 1588 847C1660.9 847 1720 906.098 1720 979Z" fill="url(#paint0_radial_2_3)"/>
  <path d="M951.14 540.72C953.547 537.67 957.239 533.803 958.894 532.6C959.896 531.871 961.202 531.479 961.796 531.728C962.98 532.227 968.15 533.056 977.752 534.288C981.185 534.728 986.042 535.785 988.544 536.635C991.047 537.485 995.361 538.465 998.131 538.814C1000.9 539.162 1004.08 539.824 1005.19 540.286C1006.31 540.746 1009.45 541.124 1012.18 541.124C1016.08 541.124 1017.42 541.427 1018.43 542.532C1020.18 544.448 1022.17 544.847 1030.54 544.955C1036.53 545.032 1038.41 545.369 1042.02 547.004C1044.39 548.081 1047.31 549.696 1048.5 550.592C1049.68 551.489 1051.22 552.442 1051.91 552.711C1052.61 552.98 1053.17 553.892 1053.17 554.739C1053.17 555.586 1053.44 556.278 1053.76 556.278C1054.09 556.278 1055.12 557.898 1056.05 559.877C1056.98 561.857 1058.29 564.329 1058.96 565.371C1062.37 570.702 1065.68 575.972 1067.65 579.199C1068.86 581.179 1070.14 582.799 1070.5 582.799C1070.86 582.799 1071.16 583.26 1071.16 583.825C1071.16 584.389 1071.89 585.717 1072.78 586.777C1073.67 587.836 1075.18 589.787 1076.14 591.113C1078.52 594.395 1082.86 599.522 1088.25 605.39C1090.72 608.086 1092.75 610.473 1092.75 610.696C1092.75 610.919 1094.77 613.103 1097.24 615.551C1099.72 617.999 1107.4 625.875 1114.33 633.053C1121.26 640.231 1128.52 647.459 1130.48 649.117C1132.44 650.774 1135.55 653.665 1137.4 655.541C1142.61 660.833 1144.33 662.36 1145.11 662.36C1145.5 662.36 1146.35 663.213 1147 664.254C1147.65 665.296 1148.53 666.149 1148.96 666.149L1156.32 681.339C1162.47 697.703 1172.37 727.35 1162.74 715.031C1150.69 699.634 1110.15 672.46 1104.52 674.574C1100.03 676.265 1085.52 677.252 1078.83 677.534L1076.14 692.756C1052.58 697.243 1076.35 727.829 1066.79 717.281C1056.05 705.441 1030.72 690.984 1016.6 685.145C1016.6 690.716 1017.5 703.75 1013.79 705.441C1009.15 707.555 983.278 645.043 976.854 660.197C970.43 675.352 983.278 698.676 974.847 704.596C962.056 713.576 961.796 662.36 957.182 667.385C953.49 671.406 948.952 669.624 947.145 668.231C947.011 670.345 946.823 675.166 947.145 677.534C947.466 679.902 936.387 688.668 930.808 692.756C930.808 692.756 914.223 660.246 897.361 672.46C880.499 684.673 832.251 767.599 837.139 747.725C894.952 553.741 839.548 678.104 843.964 647.206C863.235 594.657 788.175 680.758 792.173 664.848C805.021 613.736 741.269 688.269 716.294 709.67C868.455 523.197 699.432 691.487 734.81 651.662C770.188 611.838 684.577 679.225 675.064 679.225C675.316 678.815 675.682 678.403 676.086 678.104C678.843 676.071 703.025 652.64 703.375 651.662C703.507 651.295 704.066 650.994 704.618 650.994C705.169 650.994 706.151 650.142 706.799 649.1C707.447 648.058 708.288 647.206 708.668 647.206C709.416 647.206 716.925 640.701 722.33 635.37C724.181 633.544 726.036 632.051 726.451 632.051C726.866 632.051 727.736 631.199 728.384 630.157C729.032 629.115 729.974 628.262 730.476 628.262C730.979 628.262 731.92 627.41 732.569 626.368C733.217 625.326 734.226 624.474 734.81 624.474C735.394 624.474 735.873 624.202 735.873 623.871C735.873 623.539 738.301 621.264 741.269 618.816C744.237 616.368 746.665 614.081 746.665 613.736C746.665 613.39 747.09 613.108 747.608 613.108C748.128 613.108 749.18 612.502 749.947 611.761C751.256 610.497 760.418 603.792 763.119 602.121C763.793 601.704 765.123 600.595 766.073 599.658C767.024 598.721 768.104 597.953 768.473 597.953C768.842 597.953 773.995 592.923 779.923 586.777C785.851 580.63 794.518 571.64 799.185 566.801C812.046 553.464 817.269 549.857 825.494 548.633C832.643 547.57 840.656 548.223 849.534 550.597C870.096 556.092 875.795 557.028 879.934 555.589C881.328 555.105 886.637 554.397 891.733 554.015C896.829 553.634 902.718 552.981 904.822 552.565C912.475 551.05 916.311 551.328 930.808 554.447L936.873 555.752L940.161 553.986C943.897 551.98 947.658 547.961 949.17 544.361C949.735 543.016 950.621 541.377 951.14 540.72Z" fill="#FFE2D7"/>
  <path fill-rule="evenodd" clip-rule="evenodd" d="M674.717 680.21C674.717 679.931 674.85 679.579 675.067 679.225C678.733 679.225 693.706 669.213 708.699 659.188C732.602 643.204 756.553 627.188 734.812 651.662C724.508 663.262 731.544 657.206 742.933 647.403C770.647 623.55 824.138 577.509 716.296 709.67C721.994 704.787 729.711 697.138 738.077 688.847C766.375 660.799 802.092 625.398 792.176 664.848C790.693 670.746 800.076 662.625 811.49 652.745C830.865 635.974 856.093 614.138 843.966 647.206C842.584 656.879 847.065 651.335 852.099 645.105C863.144 631.437 876.855 614.472 837.141 747.725C834.68 757.735 845.696 741.668 859.393 721.692C872.892 702.005 888.994 678.522 897.363 672.46C914.225 660.246 930.81 692.756 930.81 692.756C936.389 688.668 947.468 679.902 947.147 677.534C946.825 675.166 947.013 670.345 947.147 668.231C948.954 669.624 953.492 671.406 957.184 667.385C958.948 665.464 960.075 671.762 961.51 679.774C963.828 692.721 966.948 710.143 974.849 704.595C979.125 701.593 977.927 694.112 976.546 685.491C975.205 677.116 973.691 667.665 976.856 660.197C980.811 650.867 992.139 670.977 1001.34 687.319C1007.09 697.521 1012.01 706.254 1013.79 705.441C1016.96 703.997 1016.77 694.29 1016.64 688.014C1016.62 686.937 1016.6 685.961 1016.6 685.145C1030.72 690.984 1056.05 705.441 1066.79 717.281C1069.81 720.612 1069.5 719.841 1068.41 717.084C1066.06 711.113 1060.02 695.826 1076.14 692.756L1078.83 677.534C1085.52 677.252 1100.03 676.265 1104.53 674.574C1110.15 672.46 1150.7 699.633 1162.74 715.031C1172.38 727.35 1162.47 697.703 1156.32 681.339L1148.96 666.149C1149.87 666.149 1168.29 685.643 1168.29 686.614C1168.29 686.98 1168.9 687.725 1169.64 688.269C1172.41 690.318 1182.68 704.63 1182.68 706.449C1182.68 706.918 1183.49 708.419 1184.48 709.786C1185.47 711.152 1186.28 712.783 1186.28 713.411C1186.28 714.039 1186.61 714.768 1187.01 715.031C1187.42 715.293 1188.56 717.104 1189.55 719.054C1192.43 724.698 1195.73 730.155 1196.43 730.429C1196.78 730.569 1197.07 731.046 1197.07 731.491C1197.07 732.902 1205.15 740.639 1210.77 744.624C1220.05 751.188 1226.88 754.546 1243.12 760.513C1245.69 761.459 1248.77 762.66 1249.96 763.182C1251.14 763.704 1253.57 764.719 1255.35 765.436C1257.13 766.154 1260.37 767.491 1262.55 768.408C1268.38 770.865 1279.96 775.33 1281.62 775.759C1284.11 776.407 1295.15 779.888 1298.52 781.092C1300.3 781.727 1303.06 782.58 1304.64 782.987C1307.61 783.75 1308.57 784.114 1313.02 786.171C1314.47 786.839 1316.13 787.385 1316.72 787.385C1317.3 787.385 1318.71 787.895 1319.85 788.517C1320.98 789.139 1322.81 789.651 1323.91 789.654C1326.22 789.659 1330.67 791.475 1332.38 793.11C1333.03 793.726 1335.15 794.704 1337.09 795.282C1348.2 798.597 1351.67 800.359 1356.42 805.083C1364.65 813.28 1365.7 814.237 1371.28 818.65C1374.29 821.034 1377.17 823.499 1377.66 824.128C1378.16 824.757 1378.83 825.272 1379.16 825.272C1379.49 825.272 1380.57 826.039 1381.56 826.977C1384.96 830.207 1388.3 832.849 1388.97 832.849C1389.35 832.849 1390.41 833.701 1391.34 834.743C1392.27 835.785 1393.32 836.638 1393.67 836.638C1394.02 836.638 1395.37 837.49 1396.67 838.532C1397.97 839.574 1399.36 840.426 1399.77 840.426C1400.18 840.426 1400.87 840.879 1401.31 841.433C1402.52 842.97 1475.15 880.953 1479.79 882.474C1480.75 882.79 1482.53 883.687 1483.75 884.466C1484.96 885.246 1486.49 885.885 1487.14 885.887C1487.79 885.888 1489.73 886.739 1491.46 887.775C1493.18 888.812 1495.01 889.664 1495.53 889.67C1496.05 889.675 1498.25 890.531 1500.41 891.573C1502.57 892.615 1504.76 893.467 1505.27 893.467C1505.77 893.467 1507.87 894.32 1509.92 895.362C1511.97 896.403 1513.99 897.256 1514.42 897.256C1514.84 897.256 1516.96 898.108 1519.12 899.15C1521.28 900.192 1523.36 901.045 1523.73 901.045C1524.1 901.045 1526.17 901.897 1528.34 902.939C1530.5 903.981 1532.62 904.833 1533.04 904.833C1533.46 904.833 1535.49 905.686 1537.54 906.728C1539.59 907.769 1541.61 908.621 1542.03 908.62C1542.45 908.619 1544.74 909.425 1547.11 910.412C1552.84 912.792 1557.91 914.664 1561.86 915.863C1563.64 916.404 1567.2 917.612 1569.78 918.55C1577.79 921.474 1583.57 923.47 1590.28 925.634C1596.16 927.529 1601.68 929.459 1608.63 932.045C1610.01 932.56 1612.6 933.514 1614.38 934.165C1616.17 934.816 1619.57 936.155 1621.94 937.141C1624.31 938.128 1626.6 938.934 1627.02 938.933C1627.44 938.932 1629.46 939.783 1631.51 940.825C1633.57 941.867 1635.74 942.72 1636.35 942.72C1636.96 942.72 1639.05 943.572 1641.01 944.614C1642.96 945.656 1645.05 946.508 1645.64 946.508C1646.24 946.508 1648.44 947.324 1650.52 948.319C1652.61 949.316 1656.26 950.986 1658.63 952.032C1669.14 956.661 1674.31 959.122 1682.65 963.464C1696 970.418 1697.67 971.36 1698.18 972.231C1698.44 972.67 1699.28 973.029 1700.05 973.029C1700.82 973.029 1701.44 973.296 1701.44 973.623C1701.44 973.95 1702.5 974.849 1703.78 975.621C1705.07 976.392 1709.31 979.279 1713.22 982.035C1717.12 984.792 1720.83 987.388 1721.45 987.804C1722.08 988.221 1723.26 989.181 1724.07 989.938C1724.88 990.695 1726.6 992.002 1727.89 992.842C1729.17 993.681 1730.22 994.682 1730.22 995.065C1730.22 995.448 1730.65 995.761 1731.18 995.761C1731.7 995.761 1732.89 996.613 1733.82 997.655C1734.75 998.697 1735.94 999.549 1736.47 999.549C1736.99 999.549 1737.43 999.805 1737.44 1000.12C1737.44 1000.43 1739.06 1001.88 1741.02 1003.34C1742.98 1004.8 1744.59 1006.25 1744.6 1006.56C1744.61 1006.87 1745.08 1007.13 1745.65 1007.13C1746.22 1007.13 1747.11 1007.73 1747.63 1008.47C1748.47 1009.67 1757 1016.18 1760.27 1018.11C1760.98 1018.53 1762.57 1019.64 1763.81 1020.58C1765.05 1021.51 1766.29 1022.28 1766.56 1022.28C1766.83 1022.28 1768.08 1023.05 1769.33 1023.99C1771.87 1025.89 1786.67 1033.65 1787.78 1033.65C1788.17 1033.65 1790.52 1034.46 1792.99 1035.46C1799.96 1038.26 1810.48 1040.65 1818 1041.15L1919.69 1065.81V1090.78C1919.79 1118.08 1919.69 1534 1919.69 1534C1919.69 1534 1738.32 1534.47 1682.77 1534.45C1404.03 1534.37 1620.54 1533.23 969.023 1533.23L259.684 1531.26L202.123 1532.62L1.36793 1534.31C1.36793 1448.31 -1.2117 1029.09 1.24921 1027.49C1.63589 1027.23 205.093 954.056 205.623 953.736C206.341 953.304 208.816 951.584 211.122 949.917C214.634 947.377 220.033 944.293 225.028 941.973C225.622 941.697 227.079 940.94 228.266 940.289C229.453 939.639 231.639 938.479 233.123 937.71C234.607 936.942 235.821 936.05 235.821 935.728C235.821 935.406 236.449 935.142 237.217 935.142C237.986 935.142 238.814 934.801 239.059 934.385C239.712 933.272 250.881 927.789 253.78 927.158C255.149 926.86 257.685 925.978 259.416 925.196C261.146 924.415 263.041 923.776 263.628 923.776C264.214 923.776 266.463 922.924 268.626 921.882C270.789 920.84 272.827 919.988 273.155 919.988C273.483 919.988 276.307 918.772 279.429 917.287C282.552 915.802 286.078 914.139 287.266 913.592C288.453 913.045 291.293 911.703 293.577 910.609C295.861 909.516 298.199 908.622 298.773 908.622C299.345 908.622 301.584 907.769 303.746 906.728C305.909 905.686 308.023 904.833 308.444 904.833C308.865 904.833 310.748 904.006 312.627 902.995C320.417 898.805 324.388 897.21 332.476 895.022C337.16 893.754 341.855 892.216 342.909 891.601C343.963 890.986 345.959 889.951 347.344 889.3C350.816 887.667 356.105 884.469 357.474 883.175C358.098 882.585 358.923 882.101 359.306 882.101C359.689 882.101 360.635 881.594 361.408 880.975C364.969 878.123 370.609 874.524 371.519 874.524C372.073 874.524 372.526 874.244 372.526 873.9C372.526 873.558 374.064 872.477 375.944 871.499C377.823 870.521 379.524 869.483 379.721 869.191C379.919 868.9 381.376 867.979 382.959 867.144C384.542 866.309 388.427 864.26 391.593 862.591C394.759 860.922 399.454 858.524 402.026 857.262C409.422 853.633 420.763 848.021 424.69 846.046C435.329 840.696 443.89 836.638 444.538 836.638C444.941 836.638 446.468 835.969 447.932 835.153C449.395 834.336 453.021 832.605 455.989 831.307C458.957 830.008 463.004 828.171 464.982 827.224C466.961 826.277 470.037 824.81 471.818 823.964C483.032 818.638 503.437 807.474 511.753 802.113C513.336 801.093 515.785 799.603 517.197 798.803C518.608 798.002 520.185 796.81 520.702 796.154C521.219 795.499 521.894 794.963 522.201 794.963C522.797 794.963 530.214 789.844 530.819 789.015C531.017 788.744 532.797 787.351 534.776 785.92C536.755 784.489 539.379 782.443 540.609 781.374C541.839 780.304 543.619 778.752 544.566 777.924C546.524 776.213 549.76 774.134 552.404 772.89C570.752 764.254 607.453 745.228 610.323 742.865C614.225 739.651 619.302 734.85 628.187 725.977C633.003 721.166 638.887 715.371 641.261 713.098C643.636 710.825 648.285 706.152 651.592 702.712C654.901 699.272 657.757 696.458 657.94 696.458C658.279 696.458 662.408 692.428 669.391 685.281C671.529 683.093 673.602 681.303 673.998 681.303C674.394 681.303 674.717 680.812 674.717 680.21Z" fill="url(#paint1_linear_2_3)"/>
  <path d="M674.717 680.21C674.717 679.931 674.849 679.579 675.066 679.225C678.733 679.225 693.706 669.213 708.698 659.188C732.601 643.204 756.553 627.188 734.812 651.662C724.507 663.262 731.543 657.206 742.932 647.403C770.646 623.55 824.137 577.509 716.296 709.67C721.994 704.787 729.711 697.138 738.076 688.847L738.077 688.846C766.375 660.798 802.091 625.398 792.175 664.848C790.693 670.746 800.076 662.625 811.49 652.745C830.865 635.974 856.093 614.138 843.966 647.206C842.583 656.879 847.064 651.335 852.098 645.105C863.144 631.437 876.854 614.472 837.141 747.725C834.679 757.735 709 1139.87 709 1139.87L575.5 1529.5H-1.49997L-1.5 1139.87L-1.49997 1027.83C-1.49997 1027.83 220.033 944.294 225.029 941.973C225.622 941.697 227.079 940.94 228.266 940.289C229.454 939.639 231.639 938.479 233.123 937.71C234.607 936.942 235.821 936.05 235.821 935.728C235.821 935.406 236.449 935.142 237.218 935.142C237.986 935.142 238.814 934.801 239.059 934.385C239.712 933.272 250.881 927.789 253.78 927.158C255.149 926.861 257.685 925.978 259.416 925.197C261.146 924.415 263.041 923.777 263.628 923.777C264.214 923.777 266.463 922.924 268.626 921.882C270.789 920.84 272.827 919.988 273.155 919.988C273.483 919.988 276.307 918.772 279.429 917.287C282.552 915.802 286.078 914.139 287.265 913.592C288.453 913.045 291.293 911.703 293.577 910.609C295.861 909.516 298.199 908.622 298.772 908.622C299.345 908.622 301.584 907.769 303.746 906.728C305.909 905.686 308.023 904.833 308.444 904.833C308.865 904.833 310.748 904.006 312.627 902.995C320.417 898.805 324.387 897.21 332.476 895.022C337.16 893.755 341.855 892.216 342.909 891.601C343.963 890.987 345.959 889.951 347.344 889.3C350.815 887.667 356.105 884.469 357.474 883.175C358.098 882.585 358.923 882.101 359.306 882.101C359.689 882.101 360.634 881.595 361.408 880.975C364.969 878.123 370.609 874.524 371.519 874.524C372.073 874.524 372.526 874.244 372.526 873.901C372.526 873.558 374.064 872.477 375.944 871.499C377.823 870.521 379.523 869.483 379.721 869.191C379.919 868.9 381.376 867.979 382.959 867.144C384.542 866.309 388.427 864.26 391.593 862.591C394.759 860.922 399.454 858.524 402.026 857.262C409.422 853.633 420.763 848.021 424.69 846.046C435.329 840.696 443.89 836.638 444.538 836.638C444.94 836.638 446.468 835.969 447.931 835.153C449.395 834.336 453.02 832.605 455.988 831.307C458.956 830.008 463.004 828.171 464.982 827.224C466.961 826.277 470.037 824.81 471.817 823.964C483.032 818.638 503.434 807.474 511.75 802.113C513.333 801.093 515.783 799.603 517.194 798.803C518.606 798.002 520.183 796.81 520.7 796.155C521.216 795.499 521.891 794.963 522.198 794.963C522.795 794.963 530.212 789.844 530.817 789.015C531.015 788.744 532.795 787.351 534.774 785.92C536.753 784.489 539.377 782.443 540.607 781.374C541.837 780.304 543.617 778.752 544.564 777.924C546.522 776.213 549.758 774.134 552.402 772.89C570.75 764.254 607.452 745.228 610.321 742.865C614.223 739.651 619.301 734.851 628.186 725.977C633.002 721.166 638.886 715.371 641.26 713.098C643.634 710.825 648.284 706.152 651.591 702.712C654.9 699.272 657.756 696.458 657.939 696.458C658.278 696.458 662.408 692.428 669.39 685.281C671.529 683.093 673.602 681.303 673.997 681.303C674.393 681.303 674.717 680.812 674.717 680.21Z" fill="url(#paint2_linear_2_3)"/>
  <path d="M1206 622.5C1206 693.469 1080.19 751 925 751C769.808 751 644 693.469 644 622.5C644 551.531 769.808 494 925 494C1080.19 494 1206 551.531 1206 622.5Z" fill="url(#paint3_radial_2_3)" fill-opacity="0.38"/>
  </g>
  <defs>
  <radialGradient id="paint0_radial_2_3" cx="0" cy="0" r="1" gradientUnits="userSpaceOnUse" gradientTransform="translate(1588 979) rotate(90) scale(132)">
  <stop offset="0.807292" stop-color="#FFF0EF"/>
  <stop offset="1" stop-color="#E3480D" stop-opacity="0"/>
  </radialGradient>
  <linearGradient id="paint1_linear_2_3" x1="1495" y1="768.999" x2="1301.74" y2="1492.59" gradientUnits="userSpaceOnUse">
  <stop offset="0.0833333" stop-color="#EFAC86"/>
  <stop offset="0.670018" stop-color="#5F5D68"/>
  </linearGradient>
  <linearGradient id="paint2_linear_2_3" x1="830" y1="765.501" x2="431.487" y2="1529.72" gradientUnits="userSpaceOnUse">
  <stop stop-color="#DEB1A0"/>
  <stop offset="0.74991" stop-color="#484455"/>
  </linearGradient>
  <radialGradient id="paint3_radial_2_3" cx="0" cy="0" r="1" gradientUnits="userSpaceOnUse" gradientTransform="translate(925 622.5) rotate(90) scale(128.5 281)">
  <stop offset="0.432292" stop-color="#DDDDDD" stop-opacity="0.69"/>
  <stop offset="1" stop-color="#C4C4C4" stop-opacity="0"/>
  </radialGradient>
  <clipPath id="clip0_2_3">
  <rect width="1920" height="1534" fill="white"/>
  </clipPath>

  </defs>
  </svg>
  