<svg width="1920" height="1534" viewBox="0 0 1920 1534" fill="none" xmlns="http://www.w3.org/2000/svg">
  <g clip-path="url(#clip0_2_3)">
  <path d="M1012.56 1000.74L1036.46 1078.74C1009.77 1060.52 1012.52 1061.97 1036.54 1085.52L1051.23 1126.95C1011.23 1104.25 1013.69 1106.08 1051.28 1134.65L1062.75 1172.12C1011.8 1146.23 1017.62 1148.02 1068.27 1182.53L1074.37 1202.49L955.791 1203.97L965.9 1167.78C997.96 1132.46 1004.43 1124.18 969.097 1156.33L980.416 1115.81C1003.84 1088.69 1008.8 1081.76 983.786 1103.75L996.872 1056.42C1013.05 1040.5 1014.14 1041.1 997.896 1052.4L1012.56 1000.74Z" fill="#4D4E32"/>
  <path d="M218.299 860.762L236.506 926.673C214.572 910.79 216.84 912.063 236.419 932.356L247.76 967.412C214.772 947.46 216.79 949.054 247.628 973.87L256.36 1005.53C214.274 982.651 219.106 984.285 260.741 1014.38L265.394 1031.25L166 1029.72L175.313 999.634C202.999 970.793 208.612 964.005 178.259 990.119L188.687 956.429C208.942 934.25 213.266 928.559 191.791 946.4L203.859 907.051C217.788 894.087 218.68 894.617 204.81 903.707L218.299 860.762Z" fill="#4D4E32"/>
  <path d="M895.853 1008.91L907.073 1067.15C887.24 1051.04 889.327 1052.39 906.423 1071.97L914.008 1103.14C883.789 1082.26 885.601 1083.86 913.237 1108.62L918.613 1136.59C879.805 1112.15 884.359 1114.11 922.01 1144.64L924.875 1159.54L828 1146.49L840.083 1121.99C869.977 1100.72 876.131 1095.61 843.904 1114.24L857.434 1086.81C879.412 1070.33 884.198 1066 861.462 1078.64L877.154 1046.59C892.041 1037.21 892.859 1037.76 878.415 1043.86L895.853 1008.91Z" fill="#5E5337"/>
  <path d="M173.426 822.484L150.451 885.183C175.399 870.858 172.836 871.983 150.304 890.664L136.251 923.939C173.602 906.185 171.301 907.63 136.12 930.167L125.099 960.283C172.64 940.117 167.225 941.476 119.871 968.618L114 984.663L224.023 987.631L215.013 958.221C185.624 929.194 179.706 922.403 212.163 948.921L202.075 915.992C180.62 893.715 176.081 888.039 199.071 906.189L187.412 867.733C172.559 854.619 171.549 855.09 186.503 864.468L173.426 822.484Z" fill="#5E5337"/>
  <path d="M1754.04 810.7L1780.36 882.546C1751.78 866.131 1754.71 867.42 1780.53 888.826L1796.64 926.955C1753.83 906.611 1756.47 908.267 1796.79 934.092L1809.41 968.601C1754.94 945.494 1761.14 947.051 1815.4 978.152L1822.13 996.538L1696.06 999.939L1706.38 966.239C1740.06 932.977 1746.84 925.195 1709.65 955.581L1721.21 917.849C1745.79 892.323 1750.99 885.818 1724.65 906.616L1738.01 862.55C1755.03 847.523 1756.19 848.063 1739.05 858.809L1754.04 810.7Z" fill="#5E5337"/>
  <path d="M1816.88 772.133L1789.81 870.115C1822.42 846.505 1819.05 848.396 1789.94 878.564L1773.08 930.68C1822.12 901.018 1819.12 903.387 1773.28 940.28L1760.3 987.342C1822.86 953.334 1815.68 955.763 1753.78 1000.5L1746.87 1025.58L1894.63 1023.31L1880.78 978.58C1839.63 935.705 1831.28 925.615 1876.4 964.435L1860.9 914.352C1830.79 881.38 1824.36 872.92 1856.29 899.442L1838.35 840.946C1817.64 821.673 1816.31 822.462 1836.93 835.974L1816.88 772.133Z" fill="#4D4E32"/>
  <path d="M80.8493 839.802L57.0675 921.224C87.468 900.944 84.3146 902.588 57.3466 928.182L42.3677 971.552C88.1971 945.871 85.4038 947.899 42.7319 979.457L31.3276 1018.56C89.8661 988.96 83.118 991.143 25.411 1029.57L19.3349 1050.41L159.034 1044.81L145.111 1008.3C105.392 974.01 97.3135 965.907 140.708 996.753L125.118 955.877C96.0298 929.47 89.7939 922.661 120.477 943.708L102.427 895.961C82.4859 880.604 81.2461 881.287 100.997 891.9L80.8493 839.802Z" fill="#263534"/>
  <path d="M1871.27 826.981L1888.08 884.539C1866.59 870.203 1868.82 871.365 1887.88 889.458L1898.47 920.116C1866.08 901.962 1868.05 903.396 1898.22 925.705L1906.28 953.35C1864.9 932.422 1869.67 933.966 1910.46 961.132L1914.75 975.862L1816 971.901L1825.84 946.093C1853.92 921.854 1859.63 916.125 1828.96 937.931L1839.98 909.036C1860.54 890.368 1864.95 885.555 1843.26 900.433L1856.02 866.68C1870.11 855.824 1870.99 856.307 1857.03 863.809L1871.27 826.981Z" fill="#263534"/>
  <path d="M761.025 1120.5C1353.02 1284.5 1486.03 1163 1755.03 968.5C1838.03 933.5 1921.03 968.5 1921.03 968.5L1921.03 1534.5H0.525024V1066.62C172.525 910.5 138.025 968.5 761.025 1120.5Z" fill="#FFE3D8"/>
  <path d="M1921.03 1533L1921.03 1291.12V1242.62L1921.03 1183.62V1126.91L1921.03 1049C1902.41 1032.84 1872 1014.04 1809 1026.5C1718.5 1044.4 1705.19 1139.86 1621.56 1183.62C1531 1231 1515.03 1237.5 1462.53 1231C1420.53 1225.8 1338.17 1204.13 1317 1190.5C1272.58 1193.79 1063.53 1188 1063.53 1188C1063.53 1188 1356.53 1223 1436.03 1283.12C1493.59 1326.65 1221 1350 1195.03 1352.5C1169.05 1355 1138.13 1360.2 1088.53 1343C1026.53 1321.5 1223.53 1317.74 1129.03 1291.12C1034.53 1264.5 666.525 1290 852.525 1231C1001.33 1183.8 654.859 1176.37 544.525 1166C434.192 1155.63 416.525 1094.41 349.025 1077C281.525 1059.59 112.725 1092.7 75.5251 1109.5C39.4042 1125.81 1.14612 1157.59 0.0251465 1153.01V1152.5C-0.00866699 1152.7 -0.00830078 1152.87 0.0251465 1153.01V1530.5L1921.03 1533Z" fill="url(#paint0_linear_2_3)"/>
  </g>
  <defs>
  <linearGradient id="paint0_linear_2_3" x1="961" y1="876" x2="961" y2="1887.5" gradientUnits="userSpaceOnUse">
  <stop offset="0.185388" stop-color="#FFE2D7"/>
  <stop offset="0.996375" stop-color="#575168"/>
  </linearGradient>
  <clipPath id="clip0_2_3">
  <rect width="1920" height="1534" fill="white"/>
  </clipPath>
  </defs>
  </svg>
  