<svg width="1920" height="764" viewBox="0 0 1920 764" fill="none" xmlns="http://www.w3.org/2000/svg">
  <path d="M1012.56 229.739L1036.46 307.737C1009.77 289.524 1012.52 290.966 1036.54 314.518L1051.23 355.949C1011.23 333.248 1013.69 335.082 1051.28 363.654L1062.75 401.118C1011.8 375.232 1017.62 377.021 1068.27 411.53L1074.37 431.49L955.791 432.969L965.9 396.777C997.96 361.464 1004.43 353.184 969.097 385.332L980.416 344.81C1003.84 317.688 1008.8 310.758 983.786 332.746L996.872 285.42C1013.05 269.497 1014.14 270.1 997.896 281.4L1012.56 229.739Z" fill="#0A2905"/>
  <path d="M218.299 89.7622L236.506 155.673C214.572 139.79 216.84 141.063 236.419 161.356L247.76 196.412C214.772 176.46 216.79 178.054 247.628 202.87L256.36 234.528C214.274 211.651 219.106 213.285 260.741 243.38L265.394 260.247L166 258.723L175.313 228.634C202.999 199.793 208.612 193.005 178.259 219.119L188.687 185.429C208.942 163.25 213.266 157.559 191.791 175.4L203.859 136.051C217.788 123.087 218.68 123.617 204.81 132.707L218.299 89.7622Z" fill="#0A2905"/>
  <path d="M895.853 237.912L907.073 296.147C887.24 280.039 889.327 281.389 906.423 300.972L914.008 332.142C883.789 311.263 885.601 312.858 913.237 337.621L918.613 365.59C879.805 341.148 884.359 343.109 922.01 373.641L924.875 388.542L828 375.49L840.083 350.99C869.977 329.724 876.131 324.613 843.904 343.242L857.434 315.81C879.412 299.334 884.198 295.003 861.462 307.643L877.154 275.59C892.041 266.206 892.859 266.763 878.415 272.857L895.853 237.912Z" fill="#2E5148"/>
  <path d="M173.426 51.4842L150.451 114.183C175.399 99.8581 172.836 100.983 150.304 119.664L136.251 152.939C173.602 135.185 171.301 136.63 136.12 159.167L125.099 189.283C172.64 169.117 167.225 170.476 119.871 197.618L114 213.663L224.023 216.631L215.013 187.221C185.624 158.194 179.706 151.403 212.163 177.921L202.075 144.992C180.62 122.715 176.081 117.039 199.071 135.189L187.412 96.7332C172.559 83.6189 171.549 84.0902 186.503 93.4679L173.426 51.4842Z" fill="#2E5148"/>
  <path d="M1754.04 39.7002L1780.36 111.546C1751.78 95.131 1754.71 96.4198 1780.53 117.826L1796.64 155.955C1753.83 135.611 1756.47 137.267 1796.79 163.092L1809.41 197.601C1754.94 174.494 1761.14 176.051 1815.4 207.152L1822.13 225.538L1696.06 228.939L1706.38 195.239C1740.06 161.977 1746.84 154.195 1709.65 184.581L1721.21 146.849C1745.79 121.323 1750.99 114.818 1724.65 135.616L1738.01 91.5502C1755.03 76.5228 1756.19 77.0629 1739.05 87.8086L1754.04 39.7002Z" fill="#2E5148"/>
  <path d="M1816.88 1.13278L1789.81 99.1155C1822.42 75.5048 1819.05 77.3961 1789.94 107.564L1773.08 159.68C1822.12 130.018 1819.12 132.387 1773.28 169.28L1760.3 216.342C1822.86 182.334 1815.68 184.763 1753.78 229.502L1746.87 254.576L1894.63 252.311L1880.78 207.58C1839.63 164.705 1831.28 154.615 1876.4 193.435L1860.9 143.352C1830.79 110.38 1824.36 101.92 1856.29 128.442L1838.35 69.9461C1817.64 50.6732 1816.31 51.4618 1836.93 64.9742L1816.88 1.13278Z" fill="#0A2905"/>
  <path d="M80.8493 68.8019L57.0675 150.224C87.468 129.944 84.3146 131.588 57.3466 157.182L42.3677 200.552C88.1971 174.871 85.4038 176.899 42.7319 208.457L31.3276 247.565C89.8661 217.96 83.118 220.143 25.411 258.573L19.3349 279.409L159.034 273.806L145.111 237.299C105.392 203.01 97.3135 194.907 140.708 225.753L125.118 184.877C96.0298 158.47 89.7939 151.661 120.477 172.708L102.427 124.961C82.4859 109.604 81.2461 110.287 100.997 120.9L80.8493 68.8019Z" fill="#123A38"/>
  <path d="M1871.27 55.9805L1888.08 113.539C1866.59 99.2028 1868.82 100.365 1887.88 118.458L1898.47 149.116C1866.08 130.962 1868.05 132.396 1898.22 154.705L1906.28 182.35C1864.9 161.422 1869.67 162.966 1910.46 190.132L1914.75 204.862L1816 200.901L1825.84 175.093C1853.92 150.854 1859.63 145.125 1828.96 166.931L1839.98 138.036C1860.54 119.368 1864.95 114.555 1843.26 129.433L1856.02 95.6802C1870.11 84.824 1870.99 85.3071 1857.03 92.8093L1871.27 55.9805Z" fill="#123A38"/>
  <path d="M761.025 349.5C1353.02 513.5 1486.03 392 1755.03 197.5C1838.03 162.5 1921.03 197.5 1921.03 197.5L1921.03 763.5H0.525024V295.619C172.525 139.5 138.025 197.5 761.025 349.5Z" fill="#FFF8F5"/>
  <path d="M1480 653L1632.53 559.5L1722.03 544L1849.03 520.119H1921.03V471.619L1921.03 412.619V355.909L1921.03 278C1902.41 261.839 1872 243.039 1809 255.5C1718.5 273.401 1705.19 368.862 1621.56 412.619C1531 460 1515.03 466.5 1462.53 460C1420.53 454.8 1338.17 433.127 1317 419.5C1272.58 422.794 1063.53 417 1063.53 417C1063.53 417 1356.53 452 1436.03 512.119C1493.59 555.652 1221 579 1195.03 581.5C1169.05 584 1138.13 589.2 1088.53 572C1026.53 550.5 1223.53 546.739 1129.03 520.119C1034.53 493.5 666.525 519 852.525 460C1001.33 412.8 654.859 405.373 544.525 395C434.192 384.627 416.525 323.409 349.025 306C281.525 288.591 112.725 321.7 75.5251 338.5C39.4042 354.813 1.14612 386.588 0.0251465 382.009V381.5C-0.00866699 381.703 -0.00830078 381.872 0.0251465 382.009V636.5L1480 653Z" fill="#F3E9EC"/>
  </svg>
  