<svg width="1919" height="643" viewBox="0 0 1919 643" fill="none" xmlns="http://www.w3.org/2000/svg">
  <path d="M447.535 26.151L368.074 162.958C432.189 139.826 425.744 141.392 365.469 175.683L318.958 247.52C413.426 221.504 407.461 223.928 316.084 261.998L277.951 327.716C397.186 300.276 383.991 301.212 262.316 345.005L242 380.019L497.47 432.321L488.577 359.989C431.983 280.145 420.977 261.86 485.765 337.115L475.809 256.128C434.941 195.307 426.692 180.19 472.845 232.018L461.504 137.489C432.259 100.767 429.709 101.45 460.729 129.496L447.535 26.151Z" fill="#123A38"/>
  <path d="M1708.38 37.7852L1784.22 176.633C1720.73 151.824 1727.13 153.559 1786.49 189.423L1831.09 262.457C1737.34 233.967 1743.24 236.547 1833.59 277.005L1869.98 343.702C1751.51 313.138 1764.67 314.421 1885.15 361.397L1904.54 396.932L1647.79 442.502L1658.58 370.429C1717.25 292.1 1728.73 274.11 1661.99 347.637L1674.07 266.94C1716.52 207.214 1725.17 192.319 1677.67 242.916L1691.49 148.718C1721.69 112.776 1724.22 113.526 1692.47 140.748L1708.38 37.7852Z" fill="#123A38"/>
  <path d="M1583.07 62.8313L1577.08 220.928C1622.85 170.42 1617.89 174.827 1580.75 233.388L1573.38 318.648C1644.6 251.354 1640.47 256.293 1577.63 332.783L1574.79 408.709C1667.21 328.538 1656 335.556 1569.09 431.313L1567.58 471.765L1817.72 398.103L1775.94 338.397C1688.5 294.435 1670.2 283.451 1762.72 319.515L1715.94 252.665C1651.31 218.125 1636.93 208.645 1702.01 232.763L1647.64 154.604C1604.59 135.893 1602.66 137.692 1643.21 147.908L1583.07 62.8313Z" fill="#0A2905"/>
  <path d="M280.418 25L323.106 152C273.842 121.918 278.923 124.312 323.106 163L349.492 230.5C275.536 192.87 280.073 195.894 349.418 243L369.893 304C275.629 260.982 286.418 264 379.928 321L390.836 353.5H170L189.663 295C250.179 238.369 262.416 225.069 195.882 276.5L217.898 211C262.136 167.481 271.546 156.34 224.453 191.5L249.918 115C280.418 89.5 282.418 90.5 251.918 108.5L280.418 25Z" fill="#2E5148"/>
  <path d="M1529.58 237.962L1579.07 312.965C1541.96 301.922 1545.67 302.602 1580.96 320.096L1609.65 359.325C1555.25 347.63 1558.71 348.811 1611.75 367.441L1635.5 403.471C1567 391.77 1574.52 391.874 1644.93 412.769L1657.58 431.965L1514.41 469.889L1517.11 428.587C1546.62 381.481 1552.27 370.757 1517.97 415.526L1520.99 369.281C1542.2 333.471 1546.39 324.633 1521.89 355.514L1525.27 301.546C1540.66 279.777 1542.13 280.082 1525.45 296.989L1529.58 237.962Z" fill="#2E5148"/>
  <path d="M361 336.5C726 515.5 1104.53 610 1811.53 336.5C1894.53 301.5 1920.03 323 1920.03 323C1920.03 323 1919.53 546.5 1919.53 642H0.525513V329C170.125 258.6 280 296.777 361 336.5Z" fill="#FFF8F5"/>
  <path d="M1220.4 629.697L1236.16 627.556C1251.93 625.415 1281.53 624.5 1291.53 606.5C1301.53 588.5 1256.03 573.472 1260.53 570C1269.53 563.057 1320.03 570 1346.53 570C1373.03 570 1403.03 574 1492.03 572C1581.03 570 1610.53 545.5 1621.56 534C1667.59 455 1719.03 477.29 1786.53 477.29C1840.53 477.29 1897.59 453.673 1919.37 441.865L1919.37 477.29V534L1919.37 593V641.5H1849.03H1694.03H1621.56L1462.53 642H1346.53H1295.53H1280.03H1227.53H1176.53C1176.74 638.306 1220.4 629.697 1220.4 629.697Z" fill="#F3E9EC"/>
  <path d="M202.887 480.853C170.462 473.37 127.694 463.5 104.525 463.5C64.8661 463.5 0.525085 395.71 0.525085 408.5V569.13V643.136L144.184 642.636H214.525H369.525H441.991L601.025 643.136H717.024H768.025H783.525H836.025H887.025C886.808 639.442 847.622 632.714 843.154 630.833C843.154 630.833 731.137 621.172 636.025 610C560.392 601.117 448.025 625 415.525 610C383.025 595 377.917 569.153 369.525 560.761C364.447 555.683 360.573 550.057 355.511 544.994C344.234 533.718 334.721 525.849 320.864 519.691C310.012 514.868 299.031 513.892 288.025 509C281.738 506.206 262.612 506.659 257.309 502.417C251.643 497.884 227.025 484.5 203.525 481L202.887 480.853Z" fill="#F3E9EC"/>
  </svg>
  