<svg width="1920" height="1535" viewBox="0 0 1920 1535" fill="none" xmlns="http://www.w3.org/2000/svg">
  <g>
  <path d="M448.535 918.151L369.074 1054.96C433.189 1031.83 426.744 1033.39 366.469 1067.68L319.958 1139.52C414.426 1113.5 408.461 1115.93 317.084 1154L278.951 1219.72C398.186 1192.28 384.991 1193.21 263.316 1237.01L243 1272.02L498.47 1324.32L489.577 1251.99C432.983 1172.14 421.977 1153.86 486.765 1229.11L476.809 1148.13C435.941 1087.31 427.692 1072.19 473.845 1124.02L462.504 1029.49C433.259 992.767 430.709 993.45 461.729 1021.5L448.535 918.151Z" fill="#123A38"/>
  <path d="M1709.38 929.785L1785.22 1068.63C1721.73 1043.82 1728.13 1045.56 1787.49 1081.42L1832.09 1154.46C1738.34 1125.97 1744.24 1128.55 1834.59 1169.01L1870.98 1235.7C1752.51 1205.14 1765.67 1206.42 1886.15 1253.4L1905.54 1288.93L1648.79 1334.5L1659.58 1262.43C1718.25 1184.1 1729.73 1166.11 1662.99 1239.64L1675.07 1158.94C1717.52 1099.21 1726.17 1084.32 1678.67 1134.92L1692.49 1040.72C1722.69 1004.78 1725.22 1005.53 1693.47 1032.75L1709.38 929.785Z" fill="#123A38"/>
  <path d="M1584.07 954.831L1578.08 1112.93C1623.85 1062.42 1618.89 1066.83 1581.75 1125.39L1574.38 1210.65C1645.6 1143.35 1641.47 1148.29 1578.63 1224.78L1575.79 1300.71C1668.21 1220.54 1657 1227.56 1570.09 1323.31L1568.58 1363.77L1818.72 1290.1L1776.94 1230.4C1689.5 1186.44 1671.2 1175.45 1763.72 1211.52L1716.94 1144.67C1652.31 1110.13 1637.93 1100.65 1703.01 1124.76L1648.64 1046.6C1605.59 1027.89 1603.66 1029.69 1644.21 1039.91L1584.07 954.831Z" fill="#0A2905"/>
  <path d="M281.418 917L324.106 1044C274.842 1013.92 279.923 1016.31 324.106 1055L350.492 1122.5C276.536 1084.87 281.073 1087.89 350.418 1135L370.893 1196C276.629 1152.98 287.418 1156 380.928 1213L391.836 1245.5H171L190.663 1187C251.179 1130.37 263.416 1117.07 196.882 1168.5L218.898 1103C263.135 1059.48 272.546 1048.34 225.453 1083.5L250.918 1007C281.418 981.5 283.418 982.5 252.918 1000.5L281.418 917Z" fill="#2E5148"/>
  <path d="M1530.58 1129.96L1580.07 1204.96C1542.96 1193.92 1546.67 1194.6 1581.96 1212.1L1610.65 1251.32C1556.25 1239.63 1559.71 1240.81 1612.75 1259.44L1636.5 1295.47C1568 1283.77 1575.52 1283.87 1645.93 1304.77L1658.58 1323.97L1515.41 1361.89L1518.11 1320.59C1547.62 1273.48 1553.27 1262.76 1518.97 1307.53L1521.99 1261.28C1543.2 1225.47 1547.39 1216.63 1522.89 1247.51L1526.27 1193.55C1541.66 1171.78 1543.13 1172.08 1526.45 1188.99L1530.58 1129.96Z" fill="#2E5148"/>
  <path d="M362 1228.5C727 1407.5 1105.53 1502 1812.53 1228.5C1895.53 1193.5 1921.03 1215 1921.03 1215C1921.03 1215 1920.53 1438.5 1920.53 1534H1.52551V1221C171.125 1150.6 281 1188.78 362 1228.5Z" fill="#FFF8F5"/>
  <path d="M1221.4 1521.7L1237.16 1519.56C1252.93 1517.42 1282.53 1516.5 1292.53 1498.5C1302.53 1480.5 1257.03 1465.47 1261.53 1462C1270.53 1455.06 1321.03 1462 1347.53 1462C1374.03 1462 1404.03 1466 1493.03 1464C1582.03 1462 1611.53 1437.5 1622.56 1426C1668.59 1347 1720.03 1369.29 1787.53 1369.29C1841.53 1369.29 1898.59 1345.67 1920.37 1333.86L1920.37 1369.29V1426L1920.37 1485V1533.5H1850.03H1695.03H1622.56L1463.53 1534H1347.53H1296.53H1281.03H1228.53H1177.53C1177.74 1530.31 1221.4 1521.7 1221.4 1521.7Z" fill="#F3E9EC"/>
  <path d="M203.887 1372.85C171.462 1365.37 128.694 1355.5 105.525 1355.5C65.8661 1355.5 1.52509 1287.71 1.52509 1300.5V1461.13V1535.14L145.184 1534.64H215.525H370.525H442.991L602.025 1535.14H718.024H769.025H784.525H837.025H888.025C887.808 1531.44 848.622 1524.71 844.154 1522.83C844.154 1522.83 732.137 1513.17 637.025 1502C561.392 1493.12 449.025 1517 416.525 1502C384.025 1487 378.917 1461.15 370.525 1452.76C365.447 1447.68 361.573 1442.06 356.511 1436.99C345.234 1425.72 335.721 1417.85 321.864 1411.69C311.012 1406.87 300.031 1405.89 289.025 1401C282.738 1398.21 263.612 1398.66 258.309 1394.42C252.643 1389.88 228.025 1376.5 204.525 1373L203.887 1372.85Z" fill="#F3E9EC"/>
  </g>
</svg>
  