<svg width="1920" height="1534" viewBox="0 0 1920 1534" fill="none" xmlns="http://www.w3.org/2000/svg">
  <g clip-path="url(#clip0_2_3)">
  <path d="M694.509 886.525L711.498 941.975C692.528 929.027 694.481 930.052 711.558 946.795L722 976.248C693.562 960.11 695.31 961.414 722.039 981.726L730.189 1008.36C693.97 989.957 698.105 991.228 734.112 1015.76L738.454 1029.95L654.152 1031L661.339 1005.27C684.131 980.169 688.73 974.282 663.612 997.137L671.659 968.329C688.308 949.048 691.84 944.122 674.054 959.753L683.357 926.109C694.861 914.79 695.63 915.218 684.085 923.251L694.509 886.525Z" fill="#4D4E32"/>
  <path d="M1378.94 899.525L1361.96 954.975C1380.93 942.027 1378.97 943.052 1361.9 959.795L1351.45 989.248C1379.89 973.11 1378.14 974.414 1351.41 994.726L1343.27 1021.36C1379.48 1002.96 1375.35 1004.23 1339.34 1028.76L1335 1042.95L1419.3 1044L1412.11 1018.27C1389.32 993.169 1384.72 987.282 1409.84 1010.14L1401.79 981.329C1385.15 962.048 1381.61 957.122 1399.4 972.753L1390.1 939.109C1378.59 927.79 1377.82 928.218 1389.37 936.251L1378.94 899.525Z" fill="#4D4E32"/>
  <path d="M622.524 950.247L615.222 988.148C628.13 977.664 626.771 978.543 615.645 991.288L610.709 1011.57C630.376 997.986 629.197 999.024 611.211 1015.14L607.712 1033.34C632.969 1017.44 630.005 1018.71 605.5 1038.58L603.636 1048.28L666.685 1039.79L658.821 1023.84C639.365 1010 635.36 1006.67 656.334 1018.8L647.529 1000.95C633.225 990.222 630.109 987.404 644.907 995.63L634.694 974.769C625.006 968.662 624.473 969.024 633.873 972.99L622.524 950.247Z" fill="#5E5337"/>
  <path d="M1450.93 945.281L1458.23 983.181C1445.32 972.698 1446.68 973.577 1457.81 986.322L1462.75 1006.61C1443.08 993.02 1444.26 994.057 1462.24 1010.17L1465.74 1028.38C1440.49 1012.47 1443.45 1013.75 1467.95 1033.62L1469.82 1043.31L1406.77 1034.82L1414.63 1018.87C1434.09 1005.03 1438.09 1001.71 1417.12 1013.83L1425.93 995.979C1440.23 985.255 1443.34 982.437 1428.55 990.663L1438.76 969.802C1448.45 963.695 1448.98 964.058 1439.58 968.023L1450.93 945.281Z" fill="#5E5337"/>
  <path d="M1365.53 1017C1571.53 1057 1692.69 1058.5 1772.03 1051.5L1918.5 1044V1535H1772.03H498.025H1V1102L498.025 1051.5C581.192 1046.33 890.525 972 970.525 972C1071.55 972 1108.03 967 1365.53 1017Z" fill="url(#paint0_linear_2_3)"/>
  <ellipse cx="933" cy="1498.5" rx="2036" ry="1036.5" fill="url(#paint1_radial_2_3)" fill-opacity="0.66"/>
  </g>
  <defs>
  <linearGradient id="paint0_linear_2_3" x1="988" y1="877" x2="899.5" y2="1290.5" gradientUnits="userSpaceOnUse">
  <stop offset="0.257998" stop-color="#E8BCAC"/>
  <stop offset="0.890141" stop-color="#615E69"/>
  </linearGradient>
  <radialGradient id="paint1_radial_2_3" cx="0" cy="0" r="1" gradientUnits="userSpaceOnUse" gradientTransform="translate(934.061 1562.32) rotate(90) scale(1634.34 3210.34)">
  <stop offset="0.245894" stop-color="#C4C4C4" stop-opacity="0.78"/>
  <stop offset="0.424477" stop-color="#C4C4C4" stop-opacity="0.71"/>
  <stop offset="0.607212" stop-color="#C4C4C4" stop-opacity="0"/>
  </radialGradient>
  <clipPath id="clip0_2_3">
  <rect width="1920" height="1534" fill="white"/>
  </clipPath>
  </defs>
  </svg>
  