<svg width="1918" height="649" viewBox="0 0 1918 649" fill="none" xmlns="http://www.w3.org/2000/svg">
  <path d="M693.509 0.525377L710.498 55.9745C691.528 43.0266 693.481 44.0518 710.558 60.7948L721 90.2482C692.562 74.1103 694.31 75.4138 721.039 95.7262L729.189 122.359C692.97 103.957 697.105 105.228 733.112 129.761L737.454 143.951L653.152 145.002L660.339 119.273C683.131 94.1692 687.73 88.2824 662.612 111.137L670.659 82.3293C687.308 63.0484 690.84 58.1218 673.054 73.7531L682.357 40.1091C693.861 28.7897 694.63 29.2184 683.085 37.2513L693.509 0.525377Z" fill="#0A2905"/>
  <path d="M1377.94 13.5254L1360.96 68.9745C1379.93 56.0266 1377.97 57.0518 1360.9 73.7948L1350.45 103.248C1378.89 87.1103 1377.14 88.4138 1350.41 108.726L1342.27 135.359C1378.48 116.957 1374.35 118.228 1338.34 142.761L1334 156.951L1418.3 158.002L1411.11 132.273C1388.32 107.169 1383.72 101.282 1408.84 124.137L1400.79 95.3293C1384.15 76.0484 1380.61 71.1218 1398.4 86.7531L1389.1 53.1091C1377.59 41.7897 1376.82 42.2184 1388.37 50.2513L1377.94 13.5254Z" fill="#0A2905"/>
  <path d="M621.524 64.2473L614.222 102.148C627.13 91.6643 625.771 92.5434 614.645 105.288L609.708 125.574C629.375 111.986 628.197 113.024 610.21 129.14L606.711 147.343C631.969 131.436 629.005 132.712 604.5 152.583L602.636 162.281L665.685 153.787L657.821 137.841C638.365 124.001 634.36 120.674 655.334 132.799L646.528 114.945C632.225 104.222 629.109 101.404 643.907 109.63L633.694 88.769C624.005 82.662 623.473 83.0245 632.873 86.9902L621.524 64.2473Z" fill="#2E5148"/>
  <path d="M1449.93 59.2805L1457.23 97.181C1444.32 86.6975 1445.68 87.5766 1456.81 100.321L1461.75 120.608C1442.08 107.019 1443.26 108.057 1461.24 124.174L1464.74 142.377C1439.49 126.469 1442.45 127.746 1466.95 147.616L1468.82 157.314L1405.77 148.82L1413.63 132.874C1433.09 119.034 1437.09 115.708 1416.12 127.832L1424.93 109.979C1439.23 99.2554 1442.34 96.4368 1427.55 104.663L1437.76 83.8023C1447.45 77.6952 1447.98 78.0577 1438.58 82.0234L1449.93 59.2805Z" fill="#2E5148"/>
  <path d="M1364.53 131C1570.53 171 1691.69 172.5 1771.03 165.5L1917.5 158V649H1771.03H497.025H0V216L497.025 165.5C580.192 160.334 889.525 86.0002 969.525 86.0002C1070.55 86.0002 1107.03 81.0002 1364.53 131Z" fill="#F3E9EC"/>
  </svg>
  