<?xml version="1.0" encoding="utf-8"?>
<!-- Generator: Adobe Illustrator 25.2.1, SVG Export Plug-In . SVG Version: 6.00 Build 0)  -->
<svg version="1.1" id="Layer_1" xmlns="http://www.w3.org/2000/svg" xmlns:xlink="http://www.w3.org/1999/xlink" x="0px" y="0px"
	 viewBox="0 0 100 100" style="enable-background:new 0 0 100 100;" xml:space="preserve">
<style type="text/css">
	.st0{fill:url(#SVGID_1_);}
	.st1{fill:#ED83B9;}
</style>
<linearGradient id="SVGID_1_" gradientUnits="userSpaceOnUse" x1="0.7043" y1="51.4898" x2="99.3062" y2="51.4898">
	<stop  offset="0" style="stop-color:#F0C8D5"/>
	<stop  offset="1" style="stop-color:#D22475"/>
</linearGradient>
<path class="st0" d="M25.5,48c1.3,0.5,1.3,2.4-0.1,2.8L2.8,57.5c-2.5,0.8-2.8,4.1-0.6,5.4c14.5,8.7,55.1,28.9,88,5.6
	C129.6,40.7,29.7,5.9,8,34c-1.5,2-1.1,4.8,0.9,6.3C12.8,43.1,20.6,46.2,25.5,48z"/>
<g>
	<path class="st1" d="M37.1,26.6c11.9,0,25.9,3,37.4,7.9c11.7,5,19.4,11.4,21.4,17.4c1.5,4.8-0.9,9.6-7.4,14.1
		c-9.7,6.8-20.9,10.3-33.4,10.3c-21.5,0-41.4-10-51.4-16l22.5-6.7c1.8-0.5,3.1-2.2,3.2-4.1c0.1-1.9-1.1-3.7-2.9-4.3
		c-7.4-2.8-13.1-5.4-15.9-7.4c-0.4-0.3-0.5-0.7-0.6-0.9c0-0.2,0-0.7,0.3-1.1C14.9,29.9,24.4,26.6,37.1,26.6 M37.1,23.6
		c-12.4,0-23.4,3-29.1,10.3c-1.5,2-1.1,4.8,0.9,6.3c4,2.9,11.8,6,16.6,7.8c1.3,0.5,1.3,2.4-0.1,2.8L2.8,57.5
		c-2.5,0.8-2.8,4.1-0.6,5.4c9.5,5.7,30.4,16.4,52.9,16.4c11.7,0,23.9-2.9,35.1-10.8C119.3,48,72.3,23.6,37.1,23.6L37.1,23.6z"/>
</g>
</svg>